<svg xmlns="http://www.w3.org/2000/svg" width="471.52" height="106.893"><defs><clipPath id="a"><path d="M0 792h612V0H0v792z"/></clipPath></defs><g clip-path="url(#a)" transform="matrix(1.25 0 0 -1.25 -147.57 548.24)" fill="#fff"><path d="M136.398 374.853c-.33 1.91-1.01 3.947-5.298 3.947-4.29 0-4.854-1.633-4.854-2.93 0-4.733 18.785-1.303 18.785-12.344 0-8.74-8.45-10.346-13.13-10.346-6.82 0-12.19 2.266-13.83 7.03l7 3.123c.46-2.41 2.1-4.174 7.05-4.174 4.07 0 5.02 1.98 5.02 3.12 0 5.01-18.6 1.24-18.6 12.45 0 4.39 2.77 10.04 12.14 10.04 5.87 0 12.85-1.47 13.48-9.93h-7.74zm30.925-2.876c-.457 4.842-3.557 6.314-6.104 6.314-3.72 0-5.69-2.36-6.14-6.31h12.24zm6.295-12.656c-2.06-3.79-6.583-6.14-11.72-6.14-8.45 0-14.938 4.1-14.938 16.44 0 3.6 1.243 15.16 14.386 15.16 5.923 0 14.098-2.82 14.098-16.52v-1.41h-20.586c.223-2.27.68-7.33 7.04-7.33 2.2 0 4.247 1.05 4.94 2.88l6.78-3.07zm20.616 25.15c5.868 0 10.456-3.47 10.456-10.08v-20.85h-7.898v18.66c0 2.2-.115 5.93-5.12 5.93-6.546 0-6.21.47-6.21-6.93v-17.66h-7.586l-.024 30.93h7.25m67.122-24.78c5.004 0 7 4.186 7 8.637 0 4.783-1.36 9.64-6.752 9.64-5.035 0-6.723-4.45-6.723-9.2 0-3.545 1.41-9.08 6.47-9.08m15.32-6.144h-7.72v4.235h-.11c-1.94-3.374-5.43-4.59-8.69-4.59-8.91 0-12.65 7.915-12.65 16.146 0 10.37 5.86 15.454 12.472 15.454 5.062 0 7.44-2.77 8.684-4.68h.114v12.09h7.88v-38.65zm18.58 24.59c-6.09 0-7.19-5.3-7.19-9.13 0-3.866 1.1-9.147 7.19-9.147 6.08 0 7.22 5.28 7.22 9.144 0 3.83-1.14 9.13-7.22 9.13m0-24.943c-8.05 0-15.33 4.98-15.33 15.814 0 10.83 7.28 15.786 15.33 15.786 8.08 0 15.35-4.953 15.35-15.783 0-10.83-7.28-15.81-15.36-15.81M174.05 392.2c12.486 18.65 33.747 30.932 57.876 30.932 24.13 0 45.388-12.29 57.873-30.94h3.65c-17.87 27.903-49.13 46.397-84.72 46.397-35.59 0-66.86-18.5-84.73-46.4h50.04zm53.344-23.607c-.775-.62-2.104-1.12-5.365-1.634-2.94-.5-5.36-1.25-5.36-4.51 0-2.77 2.14-3.63 3.66-3.63 3.5 0 7.05 2.27 7.05 5.92v3.84zm7.637-15.056h-7.5c.03 2.547.13 3.438.08 4.014-1.82-1.88-4.34-4.36-9.7-4.36-4.52 0-9.14 2.55-9.14 8.75 0 5.88 3.72 8.867 8.74 9.6l7.12 1.084c1.25.168 2.77.666 2.77 2.367 0 3.32-3.15 3.49-5.182 3.49-3.956 0-4.36-2.284-4.73-3.39h-7.623c1.09 8.29 7.166 9.7 13.31 9.7 4.23 0 11.947-1.3 11.947-8.69v-16.24M458.578 368.857c-.78-.62-2.115-1.117-5.387-1.64-2.94-.5-5.37-1.25-5.37-4.528 0-2.78 2.15-3.64 3.68-3.64 3.52 0 7.09 2.28 7.09 5.94v3.86zm7.664-15.113h-7.528c.03 2.556.14 3.45.087 4.023-1.83-1.88-4.58-4.377-9.73-4.377-4.54 0-9.18 2.55-9.18 8.772 0 5.9 3.74 8.902 8.78 9.638l7.14 1.084c1.25.17 2.78.67 2.78 2.38 0 3.335-3.17 3.51-5.2 3.51-3.98 0-4.38-2.292-4.75-3.4h-7.66c1.1 8.32 7.198 9.74 13.368 9.74 4.253 0 12-1.308 12-8.728v-16.304m20.31 14.77c-.33 1.91-1.01 3.948-5.3 3.948-4.285 0-4.85-1.633-4.85-2.93 0-4.733 18.785-1.303 18.785-12.344 0-8.74-8.452-10.346-13.137-10.346-6.82 0-12.185 2.266-13.832 7.03l7 3.123c.453-2.41 2.1-4.174 7.05-4.174 4.07 0 5.02 1.98 5.02 3.12 0 5.01-18.603 1.24-18.603 12.45 0 4.39 2.766 10.04 12.138 10.04 5.86 0 12.85-1.47 13.47-9.93h-7.734zm-163.75 9.613c5.868 0 10.456-3.477 10.456-10.08v-20.852h-7.897V372.2c0 2.197-.115 5.923-5.12 5.923-6.547 0-6.21.467-6.21-6.933v-17.657h-7.587l-.02 30.932h7.25m38.1-6.342c-6.08 0-7.19-5.3-7.19-9.13 0-3.864 1.11-9.145 7.19-9.145 6.09 0 7.22 5.28 7.22 9.144 0 3.832-1.13 9.13-7.22 9.13m0-24.942c-8.05 0-15.33 4.98-15.33 15.812 0 10.83 7.28 15.785 15.33 15.785 8.08 0 15.36-4.955 15.36-15.785 0-10.832-7.276-15.812-15.356-15.812m73.808 11.668c-.283-3.113-2.715-11.768-13.75-11.768-11.314 0-13.916 8.655-13.916 14.993 0 9.732 4.24 16.69 14.424 16.69 4.754 0 12.56-2.15 13.297-11.542h-8.04c-.34 1.93-1.472 4.87-4.866 4.87h-.393c-4.98 0-6.28-4.98-6.28-8.71 0-3.28.11-9.78 6.11-9.78 4.013 0 5.37 3.85 5.37 5.26h8.036zm10.76 18.027h-7.765v-.977c-.005-9.425-.005-18.847-.005-28.27h7.79c0 9.638.006 19.278-.01 28.923v.33zm-41.18 0h-7.77v-.977c-.008-9.425-.008-18.847-.008-28.27h7.79c0 9.638.002 19.278-.01 28.923v.33zm41.208 9.415h-7.786v-7.73h7.785v7.73zm-41.21-7.528c.004 2.1.01 5.652.01 8.012l-7.9-6.274c0-.625 0-1.21-.005-1.738h7.894zm-12.61-25.197c-3.227 0-3.28.66-3.28 2.404v16.51h5.053v6.11h-5.053v8.83l-7.885-6.27v-2.57h-5.16v-6.11h5.16v-18.23c0-3.91.697-6.59 7.534-6.59l1.54-.01c1.245 0 2.48 0 3.73.01v5.87c-.72-.03-1.135.03-1.635.03"/></g></svg>